<?xml version="1.0" standalone="no"?>
<!DOCTYPE svg PUBLIC "-//W3C//DTD SVG 20010904//EN"
 "http://www.w3.org/TR/2001/REC-SVG-20010904/DTD/svg10.dtd">
<svg version="1.0" xmlns="http://www.w3.org/2000/svg"
     width="150.000000pt" height="300.000000pt" viewBox="0 0 599.000000 1605.000000"
 preserveAspectRatio="xMidYMid meet">
<metadata>
Created by potrace 1.16, written by Peter Selinger 2001-2019
</metadata>
<g transform="translate(0.000000,1605.000000) scale(0.100000,-0.100000)"
fill="#000000" stroke="none">
<path d="M2360 16035 c-328 -48 -664 -173 -945 -350 -197 -125 -453 -358 -567
-515 -160 -221 -278 -425 -322 -554 -9 -26 -21 -58 -28 -70 -10 -21 -10 -21
11 1 11 12 21 28 21 34 0 21 24 79 32 79 4 0 8 8 8 19 0 10 7 24 15 31 8 7 13
16 10 20 -2 4 11 31 30 61 19 29 35 57 35 62 0 4 4 5 10 2 5 -3 10 3 10 14 0
11 6 26 13 33 7 7 21 26 32 42 78 113 208 270 293 354 106 103 262 232 292
239 37 9 138 75 143 93 2 8 28 23 58 33 30 10 79 31 109 47 112 61 236 118
270 124 19 4 80 21 135 38 186 57 262 68 520 77 335 11 491 6 595 -18 47 -11
111 -26 143 -33 32 -8 54 -18 50 -22 -4 -5 -3 -6 4 -2 6 3 29 0 50 -8 21 -8
57 -16 80 -19 23 -3 52 -14 64 -26 13 -12 29 -21 36 -21 8 0 11 -4 8 -10 -4
-6 5 -10 19 -10 14 0 26 -4 26 -10 0 -5 12 -10 28 -11 22 0 24 -2 8 -8 -15 -6
0 -15 64 -40 45 -18 100 -36 121 -38 21 -3 39 -10 39 -15 0 -6 -14 -8 -35 -4
-54 10 -42 0 28 -23 34 -12 85 -36 114 -54 115 -72 311 -254 397 -370 29 -39
64 -83 77 -97 28 -30 34 -39 113 -157 185 -275 225 -356 299 -603 53 -174 67
-394 47 -712 -11 -172 -19 -228 -32 -228 -5 0 -6 6 -2 13 5 9 4 9 -6 0 -9 -9
-10 -16 -3 -25 6 -7 9 -22 7 -33 -12 -84 -33 -203 -40 -218 -4 -10 -8 -26 -9
-35 -3 -36 -39 -142 -47 -142 -4 0 -8 -8 -8 -17 0 -10 -7 -31 -15 -47 -8 -15
-15 -37 -15 -47 0 -10 -4 -20 -9 -23 -5 -3 -12 -18 -16 -33 -6 -26 -308 -638
-359 -728 -12 -22 -51 -94 -85 -160 -35 -66 -67 -123 -72 -126 -6 -3 -9 -10
-8 -15 2 -9 -9 -34 -106 -239 -96 -203 -149 -357 -161 -468 -3 -29 -10 -70
-14 -92 -5 -22 -10 -92 -10 -155 0 -71 -6 -139 -15 -175 -21 -79 -124 -275
-150 -285 -12 -4 -27 -15 -34 -23 -23 -28 -120 -50 -211 -49 -46 0 -90 -4 -97
-9 -7 -6 -18 -7 -24 -3 -7 4 -58 8 -113 8 l-101 1 -7 175 c-4 96 -11 195 -16
220 -4 25 -7 65 -6 89 2 52 -16 80 -36 56 -7 -8 -10 -22 -6 -30 3 -8 0 -15 -6
-15 -7 0 -6 -5 2 -15 12 -15 5 -39 -10 -30 -11 7 -10 234 1 241 5 3 9 -4 9
-15 0 -12 4 -21 9 -21 16 0 33 30 27 46 -4 9 -1 23 5 30 6 8 9 20 6 27 -3 7
-1 53 4 101 7 71 6 100 -7 150 -14 51 -15 90 -9 236 4 96 8 220 9 275 l1 100
-32 20 c-27 17 -32 26 -32 60 -1 46 25 149 61 250 28 75 123 317 138 350 29
63 223 605 240 671 33 125 61 197 86 221 27 26 86 176 82 207 -2 16 -12 23
-43 28 -22 3 -58 11 -80 17 -59 16 -176 13 -292 -7 l-103 -18 0 35 c0 19 -3
31 -7 28 -3 -4 -15 1 -25 10 -33 29 -53 6 -73 -80 -4 -21 -9 -26 -18 -19 -7 5
-43 15 -81 21 -39 7 -75 15 -80 19 -6 3 -15 7 -21 9 -12 2 -46 11 -77 19 -26
6 -86 14 -135 17 -18 0 -33 6 -33 12 0 5 -5 3 -10 -5 -5 -8 -10 -10 -10 -5 0
16 -115 21 -223 10 -46 -5 -72 -3 -82 5 -8 6 -23 9 -33 6 -16 -5 -23 3 -42 49
-28 70 -36 67 -10 -3 l20 -52 -78 0 c-131 0 -293 -19 -378 -45 -45 -14 -91
-25 -103 -25 -43 0 -42 -31 2 -127 23 -50 52 -99 64 -109 22 -19 73 -130 73
-158 0 -30 101 -269 325 -766 135 -300 205 -502 205 -590 0 -29 -6 -39 -29
-53 -43 -25 -55 -72 -47 -189 3 -55 11 -120 17 -145 5 -26 11 -99 12 -164 1
-104 3 -116 16 -106 14 10 13 9 0 -13 -18 -28 -31 -85 -22 -94 3 -3 5 -95 4
-203 -1 -109 -3 -313 -4 -453 l-2 -255 -185 0 c-130 0 -192 3 -210 12 -14 7
-43 13 -65 13 -97 1 -162 39 -203 119 -10 20 -32 63 -49 96 -17 33 -39 85 -48
115 -10 30 -22 63 -26 72 -5 9 -13 81 -19 160 -6 79 -14 159 -19 178 -5 19
-17 76 -26 125 -10 50 -26 102 -36 117 -10 15 -19 34 -19 42 0 13 -131 276
-150 301 -4 6 -26 44 -48 85 -74 140 -94 174 -113 201 -18 26 -117 220 -160
317 -13 28 -28 52 -32 52 -5 0 -6 4 -3 9 3 5 -2 19 -13 32 -15 20 -74 115
-111 179 -4 8 -38 76 -74 150 -152 315 -225 555 -266 880 -29 229 -26 540 5
622 9 23 11 39 5 43 -13 8 -16 -1 -37 -130 -14 -86 -18 -164 -17 -355 1 -218
4 -261 27 -390 26 -145 68 -297 128 -465 40 -111 302 -632 512 -1018 184 -337
236 -439 278 -544 40 -102 76 -251 89 -376 25 -239 33 -292 52 -350 33 -100
102 -229 171 -319 22 -29 36 -38 60 -39 29 -1 28 -2 -11 -15 -11 -3 -9 -12 8
-39 31 -50 37 -131 20 -270 -17 -138 -14 -173 18 -203 37 -35 52 -64 52 -101
0 -18 7 -34 18 -40 15 -8 14 -11 -11 -20 -16 -6 -33 -11 -38 -11 -5 0 -20 -11
-33 -23 -32 -33 -24 -67 26 -107 34 -28 39 -37 38 -69 -3 -55 -1 -61 17 -61
26 0 6 -14 -45 -30 -42 -13 -47 -18 -50 -48 -3 -28 3 -39 35 -68 35 -32 38
-39 37 -86 0 -46 -4 -54 -37 -80 -42 -34 -50 -77 -18 -104 72 -62 71 -61 69
-118 -2 -47 2 -62 28 -98 38 -54 249 -245 289 -262 35 -15 210 -201 224 -239
20 -52 49 -60 221 -65 l158 -5 6 -56 c14 -124 18 -804 7 -1156 -16 -497 -22
-638 -106 -2210 -100 -1882 -115 -2943 -54 -3715 24 -308 81 -661 131 -815 20
-62 26 -70 51 -73 18 -2 29 2 34 14 3 9 -8 73 -25 143 -136 545 -176 1393
-131 2786 14 455 43 1071 99 2135 61 1158 66 1282 81 1740 11 345 7 1022 -7
1151 l-6 56 125 6 c134 7 173 18 183 51 8 26 253 279 309 320 53 39 297 273
311 299 15 26 7 55 -18 68 -25 13 -51 74 -43 99 3 11 19 29 36 41 16 11 37 35
45 52 15 29 15 33 -1 64 -10 18 -26 33 -35 33 -16 0 -25 16 -44 74 -5 13 7 31
44 65 61 57 64 81 14 128 -23 22 -40 48 -45 74 -9 40 -9 42 36 83 56 52 58 81
12 133 -19 21 -37 46 -40 56 -10 26 9 64 48 101 19 19 35 41 35 51 0 9 -13 47
-30 85 -21 48 -30 84 -30 122 0 60 6 74 37 85 32 12 157 192 208 298 51 106
69 193 85 414 13 177 37 309 79 431 37 107 45 127 133 308 40 81 74 155 76
163 2 8 9 21 16 29 6 8 18 32 24 52 11 33 24 56 77 146 6 10 20 31 31 47 57
80 341 635 407 795 74 179 131 399 158 610 20 149 17 476 -5 620 -114 760
-577 1410 -1242 1743 -209 105 -460 186 -694 226 -103 18 -162 21 -374 20
-143 -1 -287 -7 -336 -14z m255 -2290 c22 -2 63 -7 90 -10 28 -4 70 -12 95
-20 25 -7 86 -23 135 -35 71 -17 143 -40 172 -55 2 -1 -17 -61 -41 -133 -25
-72 -72 -241 -106 -375 l-62 -244 -167 -6 c-91 -4 -175 -9 -186 -12 -25 -7
-30 6 -105 300 -28 110 -58 223 -67 250 -25 82 -75 207 -79 202 -3 -2 9 -39
25 -80 17 -42 48 -143 70 -224 22 -81 57 -213 79 -293 21 -80 37 -148 35 -152
-2 -5 -19 -8 -37 -8 -46 0 -73 -31 -58 -65 7 -14 20 -28 29 -31 10 -3 26 -10
35 -15 10 -5 28 -9 42 -9 18 0 25 -7 30 -31 3 -17 6 -181 6 -364 0 -322 -1
-333 -21 -359 -11 -14 -26 -26 -32 -25 -7 1 -34 -7 -60 -19 -27 -12 -50 -22
-51 -22 -2 0 -6 28 -9 63 -12 120 -66 280 -187 547 -21 47 -55 123 -75 170
-21 47 -71 159 -112 250 -41 91 -88 198 -104 239 -16 40 -65 157 -109 260
-102 241 -101 237 -59 255 52 22 140 35 299 47 198 14 202 13 229 -61 12 -33
25 -60 28 -60 3 0 2 7 -1 16 -5 13 -1 14 26 9 31 -7 31 -7 25 26 -3 19 -9 44
-13 56 -6 20 -2 22 47 25 64 4 188 0 244 -7z m939 -47 c32 -6 60 -17 63 -23 2
-7 -26 -93 -63 -191 -37 -99 -91 -246 -119 -329 -54 -153 -139 -378 -267 -700
-116 -293 -147 -398 -148 -487 0 -20 -5 -40 -11 -44 -16 -10 -117 16 -132 34
-9 11 -12 108 -12 396 l0 381 55 20 c73 26 80 32 80 60 0 26 -25 45 -59 45
-11 0 -23 4 -26 10 -8 12 110 464 165 631 27 82 50 135 65 149 17 16 51 27
127 40 122 22 204 24 282 8z m-782 -1318 l-3 -340 -69 0 -70 0 0 68 c0 37 -1
186 -2 332 l-3 265 75 6 c41 3 75 6 75 7 0 1 -1 -151 -3 -338z m103 -523 c106
-40 135 -58 135 -81 0 -13 7 -37 15 -52 21 -39 20 -258 -1 -275 -10 -8 -30 -5
-81 11 -89 29 -115 53 -107 97 5 26 3 34 -12 39 -11 4 -33 20 -50 36 -24 23
-42 30 -78 31 -46 2 -67 17 -23 17 23 0 55 16 47 23 -9 9 -112 -12 -134 -26
-24 -16 -56 -97 -56 -144 0 -37 -47 -83 -86 -83 -14 0 -34 -4 -44 -10 -16 -9
-19 -3 -29 54 -12 67 -5 213 11 233 6 7 7 31 3 53 l-7 40 48 21 c32 15 59 20
85 16 29 -4 39 -2 39 9 0 20 268 13 325 -9z m-108 -262 c28 -58 -5 -143 -64
-166 -32 -12 -56 1 -88 49 -37 54 -34 104 8 135 17 14 41 27 52 29 36 7 76
-13 92 -47z m210 -286 c15 -5 24 -19 27 -41 7 -42 30 -977 25 -982 -2 -2 -44
-6 -94 -7 -108 -5 -102 -17 -106 196 l-3 150 -6 -130 c-4 -98 -6 -65 -6 130 0
156 2 224 6 170 4 -59 7 4 8 181 2 302 5 332 36 344 21 9 73 4 113 -11z m-447
-539 l0 -490 -54 0 -54 0 -6 93 c-3 50 -7 265 -8 476 l-3 384 35 13 c19 7 47
13 63 13 l27 1 0 -490z m218 8 c1 -253 0 -469 -3 -479 -7 -20 -55 -27 -55 -9
0 6 -13 10 -30 10 -16 0 -31 1 -31 3 -4 6 -18 297 -17 332 1 22 2 163 2 313 1
250 2 273 18 278 10 3 21 3 25 1 5 -3 17 -1 28 4 11 4 29 8 40 8 20 1 20 -6
23 -461z m532 -696 c14 -2 31 -4 38 -4 21 -2 13 -17 -18 -33 -23 -12 -65 -15
-207 -14 -98 1 -170 3 -160 6 19 5 21 12 7 33 -8 13 11 16 143 20 84 3 156 3
162 1 5 -3 21 -6 35 -9z m48 -105 c16 -7 21 -15 16 -26 -8 -18 -8 -39 2 -93
l6 -36 -54 -11 c-29 -6 -63 -13 -76 -16 -44 -8 -237 -9 -249 -2 -16 10 -17 49
-1 65 9 9 9 12 0 12 -9 0 -11 12 -7 43 4 23 9 44 11 46 2 2 -1 11 -8 18 -10
13 13 14 163 12 96 -1 184 -7 197 -12z m-66 -326 c18 -6 13 -9 -27 -14 -28 -3
-81 -11 -120 -16 -83 -12 -240 -13 -210 -2 11 5 20 14 20 22 0 9 16 16 45 21
55 8 262 0 292 -11z m-48 -277 c83 -12 55 -30 -66 -43 -138 -14 -248 -18 -248
-9 0 3 5 8 12 10 18 6 0 28 -25 30 -29 2 119 14 209 16 39 1 92 -1 118 -4z
m42 -302 c16 -9 16 -10 -2 -15 -51 -16 -159 -27 -254 -26 -58 1 -97 3 -87 6
29 7 19 22 -20 30 -30 6 -15 9 77 14 144 8 263 4 286 -9z"/>
</g>
</svg>
